<?xml version="1.0" standalone="no"?><!DOCTYPE svg PUBLIC "-//W3C//DTD SVG 1.1//EN" "http://www.w3.org/Graphics/SVG/1.1/DTD/svg11.dtd"><svg t="1732797027706" class="icon" viewBox="0 0 1024 1024" version="1.1" xmlns="http://www.w3.org/2000/svg" p-id="70864" xmlns:xlink="http://www.w3.org/1999/xlink" width="128" height="128"><path d="M132.760911 468.39654H42.147471a20.779774 20.779774 0 0 0-21.120426 20.779774 21.120426 21.120426 0 0 0 21.120426 21.120426h90.61344a21.120426 21.120426 0 0 0 21.120425-21.120426 20.779774 20.779774 0 0 0-21.120425-20.779774zM229.846739 738.533599l-64.383234 64.383234a21.120426 21.120426 0 0 0 14.98869 35.768463 20.439122 20.439122 0 0 0 14.648037-6.131736L259.483466 768.170326a21.120426 21.120426 0 0 0-29.636727-29.636727zM507.818795 171.688623a296.367265 296.367265 0 0 0-296.367266 296.026613 292.620093 292.620093 0 0 0 117.865603 236.071856 20.779774 20.779774 0 0 0 29.296074-3.747172 21.120426 21.120426 0 0 0-4.087824-29.636726 254.126414 254.126414 0 1 1 306.586826 0 106.283433 106.283433 0 0 0-37.812375 94.701264l-211.54491 29.296074a20.813839 20.813839 0 0 0 2.725216 41.559548h3.065868l231.984032-32.021291a20.779774 20.779774 0 0 0 18.054558-21.120426 26.570858 26.570858 0 0 0 0-8.856952v-3.747173a70.51497 70.51497 0 0 1 20.098469-68.130406A292.279441 292.279441 0 0 0 804.526712 467.715236a296.026613 296.026613 0 0 0-296.707917-296.026613zM637.94787 818.586826l-232.324684 32.021291a21.120426 21.120426 0 0 0-17.713905 23.50499 20.439122 20.439122 0 0 0 20.439121 18.054558h3.065869l232.324684-32.021291a21.120426 21.120426 0 0 0 17.713905-23.845642 20.779774 20.779774 0 0 0-23.50499-17.713906zM592.300498 924.870259a13.966733 13.966733 0 0 0-14.648037 13.28543 57.570193 57.570193 0 0 1-57.229541 54.163672A56.548237 56.548237 0 0 1 463.874683 937.474385a13.966733 13.966733 0 0 0-14.648037-13.28543 13.966733 13.966733 0 0 0-13.285429 14.648038 85.163007 85.163007 0 0 0 170.326014 0 13.966733 13.966733 0 0 0-13.966733-13.966734zM510.203359 132.854291a20.779774 20.779774 0 0 0 21.80173-20.779773V21.120426a20.779774 20.779774 0 0 0-20.779774-21.120426 21.120426 21.120426 0 0 0-21.120426 21.120426v90.954092a20.779774 20.779774 0 0 0 20.09847 20.779773zM826.328442 143.414504L762.285861 207.797738a21.120426 21.120426 0 0 0 0 29.636726 20.439122 20.439122 0 0 0 14.648037 6.131737 21.120426 21.120426 0 0 0 14.988689-6.131737l64.042582-64.383233a21.120426 21.120426 0 1 0-29.636727-29.636727zM978.259247 468.39654h-90.613439a20.779774 20.779774 0 0 0-21.120426 20.779774 21.120426 21.120426 0 0 0 21.120426 21.120426h90.613439a21.120426 21.120426 0 0 0 21.120426-21.120426 20.779774 20.779774 0 0 0-21.120426-20.779774zM788.856719 742.280772a21.120426 21.120426 0 0 0-29.636726 29.636726l64.383233 64.042582a21.120426 21.120426 0 0 0 29.636727-29.636727zM228.484131 237.434464A21.461078 21.461078 0 1 0 259.483466 207.797738L194.078276 143.414504a21.120426 21.120426 0 1 0-29.636727 29.636727z" fill="#b3aa0b" p-id="70865"></path></svg>