<?xml version="1.0" encoding="UTF-8" standalone="no"?>
<svg
   version="1.0"
   width="1400pt"
   height="735pt"
   viewBox="0 0 1400 735"
   preserveAspectRatio="xMidYMid"
   id="svg2"
   sodipodi:docname="logo3 (1).svg"
   inkscape:version="1.3.2 (091e20e, 2023-11-25, custom)"
   inkscape:export-filename="blackLogo.svg"
   inkscape:export-xdpi="96"
   inkscape:export-ydpi="96"
   xmlns:inkscape="http://www.inkscape.org/namespaces/inkscape"
   xmlns:sodipodi="http://sodipodi.sourceforge.net/DTD/sodipodi-0.dtd"
   xmlns="http://www.w3.org/2000/svg"
   xmlns:svg="http://www.w3.org/2000/svg">
  <defs
     id="defs2" />
  <sodipodi:namedview
     id="namedview2"
     pagecolor="#ffffff"
     bordercolor="#000000"
     borderopacity="0.25"
     inkscape:showpageshadow="2"
     inkscape:pageopacity="0.0"
     inkscape:pagecheckerboard="0"
     inkscape:deskcolor="#d1d1d1"
     inkscape:document-units="pt"
     inkscape:zoom="0.39792795"
     inkscape:cx="784.06154"
     inkscape:cy="976.3074"
     inkscape:window-width="2560"
     inkscape:window-height="1334"
     inkscape:window-x="-11"
     inkscape:window-y="-11"
     inkscape:window-maximized="1"
     inkscape:current-layer="svg2" />
  <g
     transform="matrix(0.1,0,0,-0.1,0,735)"
     fill="#ff0000"
     stroke="none"
     id="g2">
    <path
       d="m 2585,7284 c -49,-7 -112,-19 -140,-25 -63,-14 -257,-74 -310,-96 -22,-9 -62,-25 -90,-37 -95,-39 -340,-169 -467,-247 -188,-117 -429,-294 -573,-420 -272,-238 -451,-417 -551,-550 -41,-56 -73,-107 -71,-113 2,-6 46,-28 98,-50 148,-60 160,-67 157,-79 -2,-7 -46,-77 -99,-157 -143,-218 -233,-385 -294,-550 -15,-41 -31,-84 -35,-95 -39,-95 -93,-293 -116,-423 -45,-252 -54,-492 -29,-738 17,-166 31,-247 76,-434 24,-97 114,-351 165,-464 69,-151 146,-294 151,-279 3,7 -12,63 -32,125 -20,62 -40,127 -45,143 -17,58 -50,234 -65,347 -19,148 -20,495 0,650 14,115 48,295 65,353 5,17 21,71 36,120 15,50 30,94 34,98 18,21 20,-22 5,-145 -19,-167 -19,-304 0,-499 22,-226 53,-399 102,-569 22,-78 82,-261 93,-285 5,-11 19,-44 30,-73 40,-105 155,-329 239,-466 214,-352 468,-631 795,-875 132,-99 347,-238 466,-303 36,-19 90,-49 120,-65 30,-17 213,-110 405,-207 193,-97 388,-197 434,-222 312,-169 550,-343 749,-546 l 90,-90 55,73 c 123,164 172,281 165,399 -8,125 -33,158 -320,423 -170,156 -277,309 -337,481 -11,32 -22,61 -25,63 -2,2 -23,-5 -47,-15 -332,-149 -670,-159 -1038,-30 -264,92 -507,257 -734,498 -221,233 -365,495 -422,765 -44,210 -55,433 -30,655 35,317 62,443 156,723 136,405 337,727 648,1037 329,328 713,551 1146,665 161,43 283,55 565,55 204,1 251,4 260,15 53,64 297,192 410,215 87,18 242,17 306,-2 220,-68 329,-215 359,-488 15,-138 69,-219 291,-435 155,-152 174,-174 174,-203 0,-43 -41,-106 -88,-136 -98,-62 -235,-45 -707,84 -150,41 -309,80 -375,91 -331,58 -638,79 -890,60 -94,-6 -215,-21 -268,-32 -494,-103 -926,-447 -1147,-913 -49,-103 -106,-254 -126,-336 -69,-272 -85,-491 -54,-716 23,-169 50,-284 67,-284 4,0 8,28 8,61 0,131 57,465 111,654 67,235 151,422 269,595 238,350 586,585 1000,673 154,33 199,39 365,44 215,7 382,-9 730,-68 173,-29 211,-36 295,-54 41,-9 95,-20 120,-25 25,-4 81,-15 125,-25 270,-55 474,-77 545,-58 28,7 44,23 81,79 50,76 93,114 215,193 44,29 88,66 97,81 26,44 19,163 -19,340 -44,204 -154,432 -297,617 -144,186 -379,398 -624,561 -88,60 -282,171 -353,204 -108,50 -171,78 -176,78 -3,0 -20,7 -37,15 -44,20 -303,104 -352,114 -22,5 -83,18 -135,29 -119,25 -220,42 -250,42 -14,0 -56,30 -114,83 -199,182 -274,228 -486,295 -125,40 -344,51 -505,26 z"
       id="path1" />
    <path
       d="m 4543,5880 c -112,-23 -203,-139 -203,-258 0,-92 63,-196 143,-238 42,-21 151,-29 204,-15 107,29 183,134 183,251 -1,176 -152,296 -327,260 z"
       id="path2" />
  </g>
  <text
     xml:space="preserve"
     style="font-style:normal;font-variant:normal;font-weight:bold;font-stretch:normal;font-size:256px;font-family:'Microsoft YaHei';-inkscape-font-specification:'Microsoft YaHei, Bold';font-variant-ligatures:normal;font-variant-caps:normal;font-variant-numeric:normal;font-variant-east-asian:normal;fill:#ffffff;fill-opacity:1;stroke:#ffffff;stroke-width:1.035;stroke-dasharray:none;stroke-opacity:1"
     x="334.54355"
     y="519.70483"
     id="text2"><tspan
       sodipodi:role="line"
       id="tspan2"
       style="font-style:normal;font-variant:normal;font-weight:bold;font-stretch:normal;font-size:256px;font-family:'Microsoft YaHei';-inkscape-font-specification:'Microsoft YaHei, Bold';font-variant-ligatures:normal;font-variant-caps:normal;font-variant-numeric:normal;font-variant-east-asian:normal;fill:#ffffff;fill-opacity:1;stroke:#ffffff;stroke-width:1.035;stroke-dasharray:none;stroke-opacity:1"
       x="334.54355"
       y="519.70483">大智若渔</tspan></text>
  <text
     xml:space="preserve"
     style="font-style:normal;font-variant:normal;font-weight:bold;font-stretch:normal;font-size:64px;line-height:0;font-family:'Microsoft YaHei';-inkscape-font-specification:'Microsoft YaHei, Bold';font-variant-ligatures:normal;font-variant-caps:normal;font-variant-numeric:normal;font-variant-east-asian:normal;letter-spacing:24px;fill:#000000;fill-opacity:1;stroke:#ce0000;stroke-width:1.035;stroke-dasharray:none;stroke-opacity:1"
     x="645.59283"
     y="647.34369"
     id="text3"><tspan
       sodipodi:role="line"
       id="tspan3"
       style="font-style:normal;font-variant:normal;font-weight:bold;font-stretch:normal;font-size:64px;line-height:0;font-family:'Microsoft YaHei';-inkscape-font-specification:'Microsoft YaHei, Bold';font-variant-ligatures:normal;font-variant-caps:normal;font-variant-numeric:normal;font-variant-east-asian:normal;letter-spacing:24px;stroke:#ce0000;stroke-width:1.035;stroke-opacity:1"
       x="645.59283"
       y="647.34369"><tspan
   style="font-style:normal;font-variant:normal;font-weight:bold;font-stretch:normal;font-size:64px;line-height:0;font-family:'Microsoft YaHei';-inkscape-font-specification:'Microsoft YaHei, Bold';font-variant-ligatures:normal;font-variant-caps:normal;font-variant-numeric:normal;font-variant-east-asian:normal;letter-spacing:24px;fill:#ffffff;fill-opacity:1;stroke:#ffffff;stroke-opacity:1"
   id="tspan5"
   dx="0">DAZHI</tspan> <tspan
   style="font-style:normal;font-variant:normal;font-weight:bold;font-stretch:normal;font-size:64px;line-height:0;font-family:'Microsoft YaHei';-inkscape-font-specification:'Microsoft YaHei, Bold';font-variant-ligatures:normal;font-variant-caps:normal;font-variant-numeric:normal;font-variant-east-asian:normal;letter-spacing:24px;fill:#ce0000;fill-opacity:1;stroke:#ce0000;stroke-opacity:1"
   id="tspan4">RUOYU</tspan></tspan></text>
</svg>
