<?xml version="1.0" standalone="no"?><!DOCTYPE svg PUBLIC "-//W3C//DTD SVG 1.1//EN" "http://www.w3.org/Graphics/SVG/1.1/DTD/svg11.dtd"><svg t="1727600480435" class="icon" viewBox="0 0 1024 1024" version="1.1" xmlns="http://www.w3.org/2000/svg" p-id="4456" xmlns:xlink="http://www.w3.org/1999/xlink" width="200" height="200"><path d="M518.3 298.9c-64.2 0-116.4 52.2-116.4 116.4s52.2 116.4 116.4 116.4 116.4-52.2 116.4-116.4-52.2-116.4-116.4-116.4z m72.9 116.3c0 40.2-32.7 72.9-72.9 72.9s-72.9-32.7-72.9-72.9 32.7-72.9 72.9-72.9 72.9 32.7 72.9 72.9z" fill="#68b7ff" p-id="4457"></path><path d="M518.3 145.8c-138.6 0-251.4 112.8-251.4 251.4 0 55.6 38.3 147 113.8 271.8 57.8 95.6 117.6 177.1 120.1 180.5l17.5 23.8 17.5-23.8c2.5-3.4 62.3-85 120.1-180.6 75.5-124.8 113.8-216.2 113.8-271.8 0-138.6-112.8-251.3-251.4-251.3z m208 251.4c0 42.8-31 118.6-89.8 219.4-44.2 75.9-93.6 147.9-118.2 182.8-24.6-34.9-73.9-106.9-118.2-182.8-58.7-100.7-89.8-176.6-89.8-219.4 0-114.7 93.3-207.9 207.9-207.9s208.1 93.2 208.1 207.9z" fill="#68b7ff" p-id="4458"></path></svg>