<?xml version="1.0" standalone="no"?><!DOCTYPE svg PUBLIC "-//W3C//DTD SVG 1.1//EN" "http://www.w3.org/Graphics/SVG/1.1/DTD/svg11.dtd"><svg t="1727613257538" class="icon" viewBox="0 0 1024 1024" version="1.1" xmlns="http://www.w3.org/2000/svg" p-id="10580" xmlns:xlink="http://www.w3.org/1999/xlink" width="200" height="200"><path d="M300.8 812.8h424c48 0 88-40 88-88V300.8c0-48-40-88-88-88H300.8c-48 0-88 40-88 88v424c0 48 38.4 88 88 88z m-48-512c0-25.6 20.8-48 48-48h424c25.6 0 48 20.8 48 48v424c0 25.6-20.8 48-48 48H300.8c-25.6 0-48-20.8-48-48V300.8z" fill="#3765EE" p-id="10581"></path><path d="M652.8 334.4h40v355.2h-40zM384 576h142.4l43.2 113.6H608l-136-355.2h-33.6l-139.2 355.2h40L384 576z m72-182.4l54.4 142.4H400l56-142.4z" fill="#3765EE" p-id="10582"></path></svg>