<?xml version="1.0" standalone="no"?><!DOCTYPE svg PUBLIC "-//W3C//DTD SVG 1.1//EN" "http://www.w3.org/Graphics/SVG/1.1/DTD/svg11.dtd"><svg t="1727599758082" class="icon" viewBox="0 0 1024 1024" version="1.1" xmlns="http://www.w3.org/2000/svg" p-id="5207" data-spm-anchor-id="a313x.search_index.0.i0.2bcc3a81hP6IFT" xmlns:xlink="http://www.w3.org/1999/xlink" width="200" height="200"><path d="M875.776 722.73066667a1924.352 1924.352 0 0 0-154.752-22.613333c15.104-48.938667 24.746667-100.565333 26.666667-154.24 0.085333-3.114667 0-6.229333 0.042666-9.344h181.546667a407.338667 407.338667 0 0 1-53.504 186.197333z m-290.261333 201.301333a511.146667 511.146667 0 0 0 125.013333-190.634666c48.938667 4.778667 97.408 11.946667 145.578667 20.48a410.538667 410.538667 0 0 1-270.592 170.154666z m-48.682667-2.986666v-196.48c46.165333 0.341333 91.989333 2.56 137.642667 6.144-30.378667 76.032-77.525333 141.525333-137.642667 190.336z m0-384.512h176.554667c-0.042667 2.730667 0.256 5.376 0.170666 8.149333a559.402667 559.402667 0 0 1-27.349333 152.746667 1955.2 1955.2 0 0 0-149.376-6.997334v-153.898666z m0-188.245334a1814.613333 1814.613333 0 0 0 145.792-7.466666c17.834667 51.2 27.904 105.514667 30.037333 161.578666h-175.829333V348.28799967z m0-227.584A535.082667 535.082667 0 0 1 669.866667 307.62666667a1792.341333 1792.341333 0 0 1-133.034667 6.613333V120.70399967z m316.928 161.194667c-48.896 9.514667-98.133333 17.322667-147.754667 22.613333a569.514667 569.514667 0 0 0-125.44-190.421333 410.325333 410.325333 0 0 1 273.194667 167.808z m75.52 220.501333h-181.76a589.781333 589.781333 0 0 0-29.44-165.034666 1777.493333 1777.493333 0 0 0 155.690667-24.448 407.04 407.04 0 0 1 55.466666 189.482666z m-426.581333-187.989333a1865.813333 1865.813333 0 0 1-131.242667-5.973333 536.32 536.32 0 0 1 131.242667-185.856V314.45333367z m0 187.989333H329.002667c2.090667-55.722667 11.989333-109.696 29.696-160.682666 48.213333 4.010667 96.256 6.4 144 6.784v153.898666z m0 188.16a2036.48 2036.48 0 0 0-147.242667 6.826667 559.402667 559.402667 0 0 1-27.349333-152.704c-0.085333-2.773333 0.213333-5.418667 0.170666-8.149333h174.421334v154.026666z m0 228.778667c-59.136-48.64-105.472-113.493333-135.466667-188.586667a2009.045333 2009.045333 0 0 1 135.466667-6.058666v194.645333z m-319.744-166.144a2124.8 2124.8 0 0 1 148.138666-19.797333c27.946667 74.026667 70.954667 139.306667 125.44 191.061333a410.453333 410.453333 0 0 1-273.578666-171.264z m-72.704-216.661333h183.637333c0.085333 3.157333 0 6.229333 0.085333 9.386666a593.92 593.92 0 0 0 26.624 154.112c-52.224 5.12-104.704 12.8-157.354666 21.888a407.253333 407.253333 0 0 1-52.992-185.386666z m409.514666-481.365334c-52.309333 0-102.4 9.045333-149.333333 25.088 7.082667 16.554667 11.221333 34.474667 11.434667 53.333334a407.68 407.68 0 0 1 79.616-19.882667 569.685333 569.685333 0 0 0-126.293334 192c-5.973333-0.554667-11.904-1.493333-17.792-2.133333-5.76 10.965333-11.648 21.76-17.493333 32.426666 7.68 0.938667 15.445333 2.133333 23.168 2.944-17.109333 52.010667-26.88 106.922667-28.928 163.456h-183.893333a407.296 407.296 0 0 1 38.058666-155.093333c-10.496-18.773333-21.077333-38.4-31.232-58.069333A461.226667 461.226667 0 0 0 55.466667 519.46666667c0 256 208.256 464.298667 464.298666 464.298667 256 0 464.298667-208.298667 464.298667-464.298667S775.765333 55.16799967 519.765333 55.16799967z" fill="#68b7ff" p-id="5208" data-spm-anchor-id="a313x.search_index.0.i1.2bcc3a81hP6IFT" class="selected"></path><path d="M224.938667 202.11199967A53.333333 53.333333 0 1 1 224.853333 95.57333367a53.333333 53.333333 0 0 1 0 106.581333m-93.184-106.666667s1.92-32.426667 41.344-55.04c31.36-17.92 69.290667-4.266667 69.290667-4.266666-51.84 11.221333-74.154667 20.906667-110.634667 59.306666M222.165333 12.79999967a127.402667 127.402667 0 0 0-127.36 127.402667c0 53.546667 73.898667 191.573333 109.141334 254.421333a20.906667 20.906667 0 0 0 36.522666 0c35.242667-62.805333 109.141333-200.874667 109.141334-254.421333A127.445333 127.445333 0 0 0 222.208 12.79999967" fill="#1890ff" p-id="5209"></path></svg>