<?xml version="1.0" standalone="no"?><!DOCTYPE svg PUBLIC "-//W3C//DTD SVG 1.1//EN" "http://www.w3.org/Graphics/SVG/1.1/DTD/svg11.dtd"><svg t="1727599949188" class="icon" viewBox="0 0 1024 1024" version="1.1" xmlns="http://www.w3.org/2000/svg" p-id="1905" id="mx_n_1727599949189" xmlns:xlink="http://www.w3.org/1999/xlink" width="200" height="200"><path d="M512 746.666667a53.333333 53.333333 0 1 1 0 106.666666 53.333333 53.333333 0 0 1 0-106.666666z m195.584-92.586667l5.248 5.12 15.082667 15.082667a21.333333 21.333333 0 0 1 0 30.165333l-30.165334 30.165333a21.333333 21.333333 0 0 1-30.165333 0l-15.082667-15.082666a198.698667 198.698667 0 0 0-276.565333-4.309334l-4.437333 4.309334-15.082667 15.082666a21.333333 21.333333 0 0 1-30.165333 0l-30.165334-30.165333a21.333333 21.333333 0 0 1 0-30.165333l15.082667-15.104c109.184-109.184 285.141333-110.890667 396.416-5.12z m127.232-139.797333l6.016 5.930666 15.082667 15.082667a21.333333 21.333333 0 0 1 0 30.165333l-30.165334 30.165334a21.333333 21.333333 0 0 1-30.165333 0l-15.082667-15.082667c-146.410667-146.410667-382.634667-148.266667-531.328-5.546667l-5.674666 5.546667-15.082667 15.082667a21.333333 21.333333 0 0 1-30.165333 0l-30.165334-30.165334a21.333333 21.333333 0 0 1 0-30.165333l15.082667-15.082667c179.626667-179.626667 469.589333-181.589333 651.648-5.930666z m125.930667-147.434667l7.253333 6.784 15.509333 14.656a21.333333 21.333333 0 0 1 0.810667 30.165333l-29.354667 30.976a21.333333 21.333333 0 0 1-28.096 2.517334l-2.069333-1.706667-15.488-14.677333c-209.770667-198.784-534.4-211.392-758.506667-31.530667-8.277333 6.656-16.384 13.525333-24.32 20.672l-11.797333 10.858667-15.488 14.677333a21.333333 21.333333 0 0 1-30.165333-0.810667L39.68 418.453333a21.333333 21.333333 0 0 1 0.810667-30.165333l15.488-14.656a668.906667 668.906667 0 0 1 41.429333-36.16c254.72-204.416 622.378667-192.32 863.36 29.376z" fill="#68b7ff" p-id="1906"></path></svg>